<?xml version="1.0" standalone="no"?><!DOCTYPE svg PUBLIC "-//W3C//DTD SVG 1.1//EN" "http://www.w3.org/Graphics/SVG/1.1/DTD/svg11.dtd"><svg t="1657681090830" class="icon" viewBox="0 0 1024 1024" version="1.1" xmlns="http://www.w3.org/2000/svg" p-id="4892" xmlns:xlink="http://www.w3.org/1999/xlink" width="200" height="200"><defs><style type="text/css">@font-face { font-family: feedback-iconfont; src: url("//at.alicdn.com/t/font_1031158_u69w8yhxdu.woff2?t=1630033759944") format("woff2"), url("//at.alicdn.com/t/font_1031158_u69w8yhxdu.woff?t=1630033759944") format("woff"), url("//at.alicdn.com/t/font_1031158_u69w8yhxdu.ttf?t=1630033759944") format("truetype"); }
</style></defs><path d="M304 831.872a80 80 0 1 0-0.048 160 80 80 0 0 0 0.048-160z m512 0c-44.224 0-80 35.808-80 80a80 80 0 1 0 160 0 80 80 0 0 0-80-80zM297.712 160C279.936 112 226.24 64 164.8 64H16v80h148.8c31.52 0 59.2 25.696 59.2 55.136v456.272C224 728.64 281.072 784 356.8 784H896v-80H356.8c-32.08 0-52.8-19.152-52.8-48.608V239.84h569.568c-6.16 80-15.216 190.24-19.456 218.272-4.384 28.928-31.664 50.16-71.216 55.568C738.16 519.808 512 546.528 400 559.28v80.592c96-12.144 346.4-40.56 393.744-47.04 74.976-10.256 129.712-58.48 139.456-122.928C940.272 423.216 956.448 208 959.84 160H297.728z" p-id="4893"></path></svg>